# xmcd
#
# Track frame offsets: 
#        150
#        18490
#        41290
#        61133
#        80377
#        97688
#        117523
#        147220
#        163141
#        185953
#        216263
#        249227
#
# Disc length: 3552 seconds
#
# Revision: 0
# Processed by: cddbd v1.5.2PL0 Copyright (c) Steve Scherf et al.
# Submitted via: ExactAudioCopy v1.0b1
#
DISCID=9e0dde0c
DTITLE=Fede Aguado - El Corredor
DYEAR=2010
DGENRE=Blues
TTITLE0=Enchufado
TTITLE1=Tengo Un Sentimiento
TTITLE2=Camino Del Infierno
TTITLE3=Si Alguna Vez
TTITLE4=El Último Trago
TTITLE5=Se Acabó La Tranquilidad
TTITLE6=La Calle Del Ayer
TTITLE7=Por Ti Cambiaré
TTITLE8=Putón Verbenero
TTITLE9=La Taberna De Germán
TTITLE10=Cada Vez Que Muere Un Bluesman
TTITLE11=El Blues Del Asado
EXTD=
EXTT0=
EXTT1=
EXTT2=
EXTT3=
EXTT4=
EXTT5=
EXTT6=
EXTT7=
EXTT8=
EXTT9=
EXTT10=
EXTT11=
PLAYORDER=
